<svg xmlns="http://www.w3.org/2000/svg" width="180" height="180" viewBox="0 0 512 512" role="img" aria-label="Kotten ikon">
  <rect width="512" height="512" rx="112" fill="#FBF4E8"/>
  <circle cx="256" cy="286" r="178" fill="#D8D2EE" opacity=".72"/>
  <path d="M213 129c-44-24-89-14-117 26 48 12 89 6 126-18l34-22-43 14Z" fill="#BFD8C2"/>
  <path d="M299 129c44-24 89-14 117 26-48 12-89 6-126-18l-34-22 43 14Z" fill="#BFD8C2"/>
  <path d="M256 107c82 59 129 135 129 226 0 73-54 119-129 119s-129-46-129-119c0-91 47-167 129-226Z" fill="#9BC8A4"/>
  <path d="M256 107c82 59 129 135 129 226 0 73-54 119-129 119s-129-46-129-119c0-91 47-167 129-226Z" fill="none" stroke="#6F9E7B" stroke-width="10"/>
  <path d="M222 190h68a22 22 0 0 1 0 44h-68a22 22 0 0 1 0-44Z" fill="#F2C8AE"/>
  <path d="M184 237h61a22 22 0 0 1 0 44h-61a22 22 0 0 1 0-44Z" fill="#FFF8EE"/>
  <path d="M267 237h61a22 22 0 0 1 0 44h-61a22 22 0 0 1 0-44Z" fill="#F2C8AE"/>
  <path d="M166 287h70a22 22 0 0 1 0 44h-70a22 22 0 0 1 0-44Z" fill="#F2C8AE"/>
  <path d="M221 287h70a22 22 0 0 1 0 44h-70a22 22 0 0 1 0-44Z" fill="#FFF8EE"/>
  <path d="M276 287h70a22 22 0 0 1 0 44h-70a22 22 0 0 1 0-44Z" fill="#D8D2EE"/>
  <path d="M179 338h76a22 22 0 0 1 0 44h-76a22 22 0 0 1 0-44Z" fill="#D8D2EE"/>
  <path d="M257 338h76a22 22 0 0 1 0 44h-76a22 22 0 0 1 0-44Z" fill="#F2C8AE"/>
  <path d="M207 389h98a22 22 0 0 1 0 44h-98a22 22 0 0 1 0-44Z" fill="#FFF8EE"/>
</svg>
