<svg xmlns="http://www.w3.org/2000/svg" width="180" height="180" viewBox="0 0 180 180" role="img" aria-label="Kotten ikon">
  <rect width="180" height="180" rx="32" fill="#F7F1E5"/>
  <path d="M90 18c33 23 53 54 53 90 0 31-23 51-53 51s-53-20-53-51c0-36 20-67 53-90Z" fill="#44624A"/>
  <path d="M90 35c20 17 33 43 33 73 0 24-13 35-33 35s-33-11-33-35c0-30 13-56 33-73Z" fill="#8A4F35"/>
  <path d="M67 78h45M60 101h60M70 126h39" stroke="#F7F1E5" stroke-width="11" stroke-linecap="round"/>
  <path d="M90 21c-9 15-15 30-15 43M90 21c9 15 15 30 15 43" stroke="#263F2C" stroke-width="8" stroke-linecap="round"/>
</svg>
